<mxfile host="65bd71144e">
    <diagram id="twqnKC-Hb_ZT07AjvyLV" name="Page-1">
        <mxGraphModel dx="1074" dy="807" grid="1" gridSize="10" guides="1" tooltips="1" connect="1" arrows="1" fold="1" page="1" pageScale="1" pageWidth="850" pageHeight="1100" math="0" shadow="0">
            <root>
                <mxCell id="0"/>
                <mxCell id="1" parent="0"/>
                <mxCell id="2" value="账号登录" style="swimlane;childLayout=stackLayout;resizeParent=1;resizeParentMax=0;startSize=20;" parent="1" vertex="1">
                    <mxGeometry x="185" y="170" width="1005" height="1140" as="geometry"/>
                </mxCell>
                <mxCell id="3" value="前端" style="swimlane;startSize=20;" parent="2" vertex="1">
                    <mxGeometry y="20" width="435" height="1120" as="geometry"/>
                </mxCell>
                <mxCell id="8" value="账号+密码" style="whiteSpace=wrap;html=1;rounded=0;" parent="3" vertex="1">
                    <mxGeometry x="115" y="70" width="120" height="60" as="geometry"/>
                </mxCell>
                <mxCell id="14" value="提示不存在" style="whiteSpace=wrap;html=1;" parent="3" vertex="1">
                    <mxGeometry x="115" y="215" width="120" height="60" as="geometry"/>
                </mxCell>
                <mxCell id="22" value="" style="edgeStyle=none;html=1;" edge="1" parent="3" source="20" target="21">
                    <mxGeometry relative="1" as="geometry"/>
                </mxCell>
                <mxCell id="20" value="接收公钥" style="rounded=0;whiteSpace=wrap;html=1;" vertex="1" parent="3">
                    <mxGeometry x="115" y="350" width="120" height="60" as="geometry"/>
                </mxCell>
                <mxCell id="21" value="明文密码加密" style="whiteSpace=wrap;html=1;rounded=0;" vertex="1" parent="3">
                    <mxGeometry x="115" y="490" width="120" height="60" as="geometry"/>
                </mxCell>
                <mxCell id="27" value="缓存登录信息后刷新" style="rounded=1;whiteSpace=wrap;html=1;" vertex="1" parent="3">
                    <mxGeometry x="115" y="640" width="120" height="60" as="geometry"/>
                </mxCell>
                <mxCell id="42" value="初始化易盾" style="whiteSpace=wrap;html=1;" vertex="1" parent="3">
                    <mxGeometry x="115" y="855" width="120" height="60" as="geometry"/>
                </mxCell>
                <mxCell id="45" value="提示失败" style="rounded=1;whiteSpace=wrap;html=1;" vertex="1" parent="3">
                    <mxGeometry x="115" y="1000" width="120" height="60" as="geometry"/>
                </mxCell>
                <mxCell id="5" value="后端" style="swimlane;startSize=20;" parent="2" vertex="1">
                    <mxGeometry x="435" y="20" width="570" height="1120" as="geometry"/>
                </mxCell>
                <mxCell id="13" value="" style="edgeStyle=none;html=1;" parent="5" source="10" target="12" edge="1">
                    <mxGeometry relative="1" as="geometry"/>
                </mxCell>
                <mxCell id="10" value="检查手机号" style="whiteSpace=wrap;html=1;rounded=0;" parent="5" vertex="1">
                    <mxGeometry x="205" y="70" width="120" height="60" as="geometry"/>
                </mxCell>
                <mxCell id="12" value="是否存在" style="html=1;whiteSpace=wrap;aspect=fixed;shape=isoRectangle;" parent="5" vertex="1">
                    <mxGeometry x="190" y="200" width="150" height="90" as="geometry"/>
                </mxCell>
                <mxCell id="39" value="" style="edgeStyle=none;html=1;exitX=0.98;exitY=0.5;exitDx=0;exitDy=0;exitPerimeter=0;entryX=0.5;entryY=-0.033;entryDx=0;entryDy=0;entryPerimeter=0;" edge="1" parent="5" source="26" target="38">
                    <mxGeometry relative="1" as="geometry">
                        <mxPoint x="260" y="820" as="targetPoint"/>
                        <Array as="points">
                            <mxPoint x="337" y="740"/>
                            <mxPoint x="265" y="740"/>
                        </Array>
                    </mxGeometry>
                </mxCell>
                <mxCell id="41" value="失败" style="edgeLabel;html=1;align=center;verticalAlign=middle;resizable=0;points=[];" vertex="1" connectable="0" parent="39">
                    <mxGeometry x="-0.306" y="-1" relative="1" as="geometry">
                        <mxPoint as="offset"/>
                    </mxGeometry>
                </mxCell>
                <mxCell id="26" value="是否成功" style="html=1;whiteSpace=wrap;aspect=fixed;shape=isoRectangle;" vertex="1" parent="5">
                    <mxGeometry x="190" y="475" width="150" height="90" as="geometry"/>
                </mxCell>
                <mxCell id="38" value="失败次数" style="html=1;whiteSpace=wrap;aspect=fixed;shape=isoRectangle;" vertex="1" parent="5">
                    <mxGeometry x="190" y="840" width="150" height="90" as="geometry"/>
                </mxCell>
                <mxCell id="11" value="" style="edgeStyle=none;html=1;" parent="2" source="8" target="10" edge="1">
                    <mxGeometry relative="1" as="geometry"/>
                </mxCell>
                <mxCell id="15" value="" style="edgeStyle=none;html=1;" parent="2" source="12" target="14" edge="1">
                    <mxGeometry relative="1" as="geometry"/>
                </mxCell>
                <mxCell id="19" value="否" style="edgeLabel;html=1;align=center;verticalAlign=middle;resizable=0;points=[];" vertex="1" connectable="0" parent="15">
                    <mxGeometry x="-0.0986" y="-3" relative="1" as="geometry">
                        <mxPoint as="offset"/>
                    </mxGeometry>
                </mxCell>
                <mxCell id="17" value="" style="edgeStyle=none;html=1;" edge="1" parent="2" source="12" target="20">
                    <mxGeometry relative="1" as="geometry">
                        <mxPoint x="225" y="405" as="targetPoint"/>
                        <Array as="points">
                            <mxPoint x="700" y="400"/>
                        </Array>
                    </mxGeometry>
                </mxCell>
                <mxCell id="18" value="是" style="edgeLabel;html=1;align=center;verticalAlign=middle;resizable=0;points=[];" vertex="1" connectable="0" parent="17">
                    <mxGeometry x="-0.0737" y="-3" relative="1" as="geometry">
                        <mxPoint as="offset"/>
                    </mxGeometry>
                </mxCell>
                <mxCell id="25" value="" style="edgeStyle=none;html=1;entryX=0;entryY=0.522;entryDx=0;entryDy=0;entryPerimeter=0;" edge="1" parent="2" source="21" target="26">
                    <mxGeometry relative="1" as="geometry">
                        <mxPoint x="640" y="540" as="targetPoint"/>
                    </mxGeometry>
                </mxCell>
                <mxCell id="28" value="" style="edgeStyle=none;html=1;exitX=0.5;exitY=1;exitDx=0;exitDy=0;exitPerimeter=0;" edge="1" parent="2" source="26" target="27">
                    <mxGeometry relative="1" as="geometry">
                        <Array as="points">
                            <mxPoint x="700" y="690"/>
                        </Array>
                    </mxGeometry>
                </mxCell>
                <mxCell id="37" value="成功" style="edgeLabel;html=1;align=center;verticalAlign=middle;resizable=0;points=[];" vertex="1" connectable="0" parent="28">
                    <mxGeometry x="0.1509" y="2" relative="1" as="geometry">
                        <mxPoint as="offset"/>
                    </mxGeometry>
                </mxCell>
                <mxCell id="43" value="" style="edgeStyle=none;html=1;" edge="1" parent="2" source="38" target="42">
                    <mxGeometry relative="1" as="geometry"/>
                </mxCell>
                <mxCell id="44" value="超过5次" style="edgeLabel;html=1;align=center;verticalAlign=middle;resizable=0;points=[];" vertex="1" connectable="0" parent="43">
                    <mxGeometry x="0.0256" relative="1" as="geometry">
                        <mxPoint as="offset"/>
                    </mxGeometry>
                </mxCell>
                <mxCell id="46" value="" style="edgeStyle=none;html=1;" edge="1" parent="2" source="38" target="45">
                    <mxGeometry relative="1" as="geometry">
                        <Array as="points">
                            <mxPoint x="700" y="1060"/>
                        </Array>
                    </mxGeometry>
                </mxCell>
            </root>
        </mxGraphModel>
    </diagram>
</mxfile>